# xmcd
#
# Track frame offsets:
#	150
#	9391
#	18721
#	29836
#	42108
#	55523
#	70059
#	95578
#	105967
#	117544
#	138312
#	157946
#	189002
#	203623
#	221315
#	235912
#
# Disc length: 3292 seconds
# Revision: 0
# Processed by: cddbd v1.5.2PL0 Copyright (c) Steve Scherf et al.
# Submitted via: dBpowerAMP V12.0
#
DISCID=c90cda10
DTITLE=Andy Cohen - Road Be Kind
DYEAR=2015
DGENRE=Blues
TTITLE0=Five and Ten Cent Blues
TTITLE1=Seldom Seen Slim
TTITLE2=Spread the News Around
TTITLE3=Road Be Kind
TTITLE4=Windy and Warm
TTITLE5=More Wood
TTITLE6=High Country Caravan (Song for Stephen Stills)
TTITLE7=Mysterious Mose
TTITLE8=Fort Sumner Dance
TTITLE9=The Goodnight-Loving Trail
TTITLE10=Seaboard Train
TTITLE11=Talkin' Hard Luck
TTITLE12=Ten and Nine
TTITLE13=Medley: Blarney Pilgrim/Jig McCoy
TTITLE14=John Ate the Locust and the Honey
TTITLE15=Blackbird
EXTD=
EXTT0=
EXTT1=
EXTT2=
EXTT3=
EXTT4=
EXTT5=
EXTT6=
EXTT7=
EXTT8=
EXTT9=
EXTT10=
EXTT11=
EXTT12=
EXTT13=
EXTT14=
EXTT15=
PLAYORDER=
